%TF.GenerationSoftware,KiCad,Pcbnew,(6.0.0-0)*%
%TF.CreationDate,2022-01-03T20:25:41-06:00*%
%TF.ProjectId,Full Linear PSU,46756c6c-204c-4696-9e65-617220505355,0.1*%
%TF.SameCoordinates,Original*%
%TF.FileFunction,Soldermask,Top*%
%TF.FilePolarity,Negative*%
%FSLAX46Y46*%
G04 Gerber Fmt 4.6, Leading zero omitted, Abs format (unit mm)*
G04 Created by KiCad (PCBNEW (6.0.0-0)) date 2022-01-03 20:25:41*
%MOMM*%
%LPD*%
G01*
G04 APERTURE LIST*
%ADD10C,1.600000*%
%ADD11O,1.600000X1.600000*%
%ADD12R,2.000000X2.000000*%
%ADD13C,2.000000*%
%ADD14C,7.400000*%
%ADD15C,4.100000*%
%ADD16C,2.100000*%
%ADD17R,1.600000X1.600000*%
%ADD18R,1.905000X2.000000*%
%ADD19O,1.905000X2.000000*%
%ADD20C,1.440000*%
%ADD21C,3.200000*%
%ADD22R,2.500000X2.500000*%
%ADD23C,2.500000*%
%ADD24R,1.800000X1.800000*%
%ADD25C,1.800000*%
%ADD26R,2.400000X2.400000*%
%ADD27C,2.400000*%
%ADD28C,1.400000*%
%ADD29C,4.000000*%
%ADD30O,1.700000X1.700000*%
G04 APERTURE END LIST*
D10*
%TO.C,R1*%
X192100000Y-103800000D03*
D11*
X202260000Y-103800000D03*
%TD*%
D12*
%TO.C,TR1*%
X79120000Y-88800000D03*
D13*
X79120000Y-114200000D03*
X114680000Y-88800000D03*
X114680000Y-96420000D03*
X114680000Y-106580000D03*
X114680000Y-114200000D03*
D14*
X112990900Y-101500000D03*
D15*
X112990900Y-101500000D03*
X80809100Y-101500000D03*
D14*
X80809100Y-101500000D03*
%TD*%
D10*
%TO.C,R6*%
X226100000Y-88100000D03*
D11*
X226100000Y-77940000D03*
%TD*%
D10*
%TO.C,R5*%
X226100000Y-125700000D03*
D11*
X226100000Y-115540000D03*
%TD*%
D16*
%TO.C,D3*%
X120700000Y-104700000D03*
X129900000Y-104700000D03*
%TD*%
D17*
%TO.C,C7*%
X218000000Y-113400000D03*
D10*
X218000000Y-108400000D03*
%TD*%
D18*
%TO.C,U1*%
X176100000Y-116500000D03*
D19*
X173560000Y-116500000D03*
X171020000Y-116500000D03*
%TD*%
D20*
%TO.C,TRIM2*%
X201400000Y-89900000D03*
X198860000Y-87360000D03*
X201400000Y-84820000D03*
%TD*%
D17*
%TO.C,C6*%
X218000000Y-94600000D03*
D10*
X218000000Y-89600000D03*
%TD*%
D21*
%TO.C,H4*%
X244094000Y-134874000D03*
%TD*%
D16*
%TO.C,D2*%
X129900000Y-89800000D03*
X120700000Y-89800000D03*
%TD*%
D10*
%TO.C,R3*%
X207800000Y-131800000D03*
D11*
X207800000Y-121640000D03*
%TD*%
D20*
%TO.C,TRIM1*%
X201200000Y-117600000D03*
X198660000Y-115060000D03*
X201200000Y-112520000D03*
%TD*%
D22*
%TO.C,J1*%
X69200000Y-96500000D03*
D23*
X69200000Y-101500000D03*
X69200000Y-106500000D03*
%TD*%
D16*
%TO.C,D1*%
X120700000Y-112100000D03*
X129900000Y-112100000D03*
%TD*%
D17*
%TO.C,C8*%
X218000000Y-75900000D03*
D10*
X218000000Y-70900000D03*
%TD*%
D16*
%TO.C,D4*%
X129900000Y-97200000D03*
X120700000Y-97200000D03*
%TD*%
D21*
%TO.C,H1*%
X67564000Y-67564000D03*
%TD*%
D16*
%TO.C,D6*%
X169000000Y-75500000D03*
X178200000Y-75500000D03*
%TD*%
D24*
%TO.C,D10*%
X229700000Y-96800000D03*
D25*
X232240000Y-96800000D03*
%TD*%
D21*
%TO.C,H2*%
X67564000Y-134874000D03*
%TD*%
D10*
%TO.C,R2*%
X202500000Y-98800000D03*
D11*
X192340000Y-98800000D03*
%TD*%
D21*
%TO.C,H3*%
X244094000Y-67564000D03*
%TD*%
D10*
%TO.C,R4*%
X207800000Y-80700000D03*
D11*
X207800000Y-70540000D03*
%TD*%
D24*
%TO.C,D9*%
X232200000Y-106800000D03*
D25*
X229660000Y-106800000D03*
%TD*%
D26*
%TO.C,C2*%
X137000000Y-123300000D03*
D27*
X137000000Y-118300000D03*
%TD*%
D17*
%TO.C,C5*%
X218000000Y-132100000D03*
D10*
X218000000Y-127100000D03*
%TD*%
D28*
%TO.C,C1*%
X148400000Y-122300000D03*
X148400000Y-119800000D03*
%TD*%
D29*
%TO.C,HS1*%
X186320000Y-121050000D03*
X160920000Y-121050000D03*
%TD*%
D16*
%TO.C,D5*%
X178200000Y-126100000D03*
X169000000Y-126100000D03*
%TD*%
%TO.C,D8*%
X207800000Y-88100000D03*
X207800000Y-97300000D03*
%TD*%
D30*
%TO.C,J2*%
X242370000Y-106480000D03*
X239830000Y-106480000D03*
X242370000Y-103940000D03*
X239830000Y-103940000D03*
X242370000Y-101400000D03*
X239830000Y-101400000D03*
X242370000Y-98860000D03*
X239830000Y-98860000D03*
X242370000Y-96320000D03*
X239830000Y-96320000D03*
%TD*%
D26*
%TO.C,C3*%
X137000000Y-84000000D03*
D27*
X137000000Y-79000000D03*
%TD*%
D16*
%TO.C,D7*%
X207800000Y-114200000D03*
X207800000Y-105000000D03*
%TD*%
D29*
%TO.C,HS2*%
X186320000Y-81650000D03*
X160920000Y-81650000D03*
%TD*%
D18*
%TO.C,U2*%
X171000000Y-86300000D03*
D19*
X173540000Y-86300000D03*
X176080000Y-86300000D03*
%TD*%
D28*
%TO.C,C4*%
X148400000Y-82900000D03*
X148400000Y-80400000D03*
%TD*%
M02*
