M48
; DRILL file {KiCad (6.0.0-0)} date Monday, January 03, 2022 at 08:25:50 pm
; FORMAT={-:-/ absolute / inch / decimal}
; #@! TF.CreationDate,2022-01-03T20:25:50-06:00
; #@! TF.GenerationSoftware,Kicad,Pcbnew,(6.0.0-0)
; #@! TF.FileFunction,Plated,1,2,PTH
FMAT,2
INCH
; #@! TA.AperFunction,Plated,PTH,ComponentDrill
T1C0.0276
; #@! TA.AperFunction,Plated,PTH,ComponentDrill
T2C0.0315
; #@! TA.AperFunction,Plated,PTH,ComponentDrill
T3C0.0354
; #@! TA.AperFunction,Plated,PTH,ComponentDrill
T4C0.0394
; #@! TA.AperFunction,Plated,PTH,ComponentDrill
T5C0.0433
; #@! TA.AperFunction,Plated,PTH,ComponentDrill
T6C0.0472
; #@! TA.AperFunction,Plated,PTH,ComponentDrill
T7C0.0512
; #@! TA.AperFunction,Plated,PTH,ComponentDrill
T8C0.0984
; #@! TA.AperFunction,Plated,PTH,ComponentDrill
T9C0.1457
%
G90
G05
T1
X5.8425Y-3.1654
X5.8425Y-3.2638
X5.8425Y-4.7165
X5.8425Y-4.815
T2
X7.563Y-4.0866
X7.5724Y-3.8898
X7.8213Y-4.5299
X7.8291Y-3.4394
X7.9213Y-4.4299
X7.9213Y-4.6299
X7.9291Y-3.3394
X7.9291Y-3.5394
X7.963Y-4.0866
X7.9724Y-3.8898
X8.1811Y-2.7772
X8.1811Y-3.1772
X8.1811Y-4.789
X8.1811Y-5.189
X8.5827Y-2.7913
X8.5827Y-2.9882
X8.5827Y-3.5276
X8.5827Y-3.7244
X8.5827Y-4.2677
X8.5827Y-4.4646
X8.5827Y-5.0039
X8.5827Y-5.2008
X8.9016Y-3.0685
X8.9016Y-3.4685
X8.9016Y-4.5488
X8.9016Y-4.9488
T3
X3.115Y-3.4961
X3.115Y-4.4961
X4.515Y-3.4961
X4.515Y-3.7961
X4.515Y-4.1961
X4.515Y-4.4961
X9.0417Y-4.2047
X9.0433Y-3.811
X9.1417Y-4.2047
X9.1433Y-3.811
T4
X9.4421Y-3.7921
X9.4421Y-3.8921
X9.4421Y-3.9921
X9.4421Y-4.0921
X9.4421Y-4.1921
X9.5421Y-3.7921
X9.5421Y-3.8921
X9.5421Y-3.9921
X9.5421Y-4.0921
X9.5421Y-4.1921
T5
X4.752Y-3.5354
X4.752Y-3.8268
X4.752Y-4.122
X4.752Y-4.4134
X5.1142Y-3.5354
X5.1142Y-3.8268
X5.1142Y-4.122
X5.1142Y-4.4134
X6.6535Y-2.9724
X6.6535Y-4.9646
X7.0157Y-2.9724
X7.0157Y-4.9646
X8.1811Y-3.4685
X8.1811Y-3.8307
X8.1811Y-4.1339
X8.1811Y-4.4961
T6
X5.3937Y-3.1102
X5.3937Y-3.3071
X5.3937Y-4.6575
X5.3937Y-4.8543
X6.7323Y-3.3976
X6.7331Y-4.5866
X6.8323Y-3.3976
X6.8331Y-4.5866
X6.9323Y-3.3976
X6.9331Y-4.5866
T7
X2.7244Y-3.7992
X2.7244Y-3.9961
X2.7244Y-4.1929
T8
X6.3354Y-3.2146
X6.3354Y-4.7657
X7.3354Y-3.2146
X7.3354Y-4.7657
T9
X3.1815Y-3.9961
X4.4485Y-3.9961
T0
M30
