%TF.GenerationSoftware,KiCad,Pcbnew,(6.0.0-0)*%
%TF.CreationDate,2022-01-03T20:25:41-06:00*%
%TF.ProjectId,Full Linear PSU,46756c6c-204c-4696-9e65-617220505355,0.1*%
%TF.SameCoordinates,Original*%
%TF.FileFunction,Copper,L2,Bot*%
%TF.FilePolarity,Positive*%
%FSLAX46Y46*%
G04 Gerber Fmt 4.6, Leading zero omitted, Abs format (unit mm)*
G04 Created by KiCad (PCBNEW (6.0.0-0)) date 2022-01-03 20:25:41*
%MOMM*%
%LPD*%
G01*
G04 APERTURE LIST*
%TA.AperFunction,ComponentPad*%
%ADD10C,1.600000*%
%TD*%
%TA.AperFunction,ComponentPad*%
%ADD11O,1.600000X1.600000*%
%TD*%
%TA.AperFunction,ComponentPad*%
%ADD12R,2.000000X2.000000*%
%TD*%
%TA.AperFunction,ComponentPad*%
%ADD13C,2.000000*%
%TD*%
%TA.AperFunction,ConnectorPad*%
%ADD14C,7.400000*%
%TD*%
%TA.AperFunction,ComponentPad*%
%ADD15C,4.100000*%
%TD*%
%TA.AperFunction,ComponentPad*%
%ADD16C,2.100000*%
%TD*%
%TA.AperFunction,ComponentPad*%
%ADD17R,1.600000X1.600000*%
%TD*%
%TA.AperFunction,ComponentPad*%
%ADD18R,1.905000X2.000000*%
%TD*%
%TA.AperFunction,ComponentPad*%
%ADD19O,1.905000X2.000000*%
%TD*%
%TA.AperFunction,ComponentPad*%
%ADD20C,1.440000*%
%TD*%
%TA.AperFunction,ComponentPad*%
%ADD21R,2.500000X2.500000*%
%TD*%
%TA.AperFunction,ComponentPad*%
%ADD22C,2.500000*%
%TD*%
%TA.AperFunction,ComponentPad*%
%ADD23R,1.800000X1.800000*%
%TD*%
%TA.AperFunction,ComponentPad*%
%ADD24C,1.800000*%
%TD*%
%TA.AperFunction,ComponentPad*%
%ADD25R,2.400000X2.400000*%
%TD*%
%TA.AperFunction,ComponentPad*%
%ADD26C,2.400000*%
%TD*%
%TA.AperFunction,ComponentPad*%
%ADD27C,1.400000*%
%TD*%
%TA.AperFunction,HeatsinkPad*%
%ADD28C,4.000000*%
%TD*%
%TA.AperFunction,ComponentPad*%
%ADD29O,1.700000X1.700000*%
%TD*%
%TA.AperFunction,Conductor*%
%ADD30C,0.250000*%
%TD*%
%TA.AperFunction,Conductor*%
%ADD31C,2.000000*%
%TD*%
G04 APERTURE END LIST*
D10*
%TO.P,R1,1*%
%TO.N,Net-(R1-Pad1)*%
X192100000Y-103800000D03*
D11*
%TO.P,R1,2*%
%TO.N,GNDREF*%
X202260000Y-103800000D03*
%TD*%
D12*
%TO.P,TR1,1*%
%TO.N,Net-(J1-Pad1)*%
X79120000Y-88800000D03*
D13*
%TO.P,TR1,4*%
%TO.N,Net-(J1-Pad2)*%
X79120000Y-114200000D03*
%TO.P,TR1,5*%
%TO.N,18Va*%
X114680000Y-88800000D03*
%TO.P,TR1,6*%
%TO.N,GNDREF*%
X114680000Y-96420000D03*
%TO.P,TR1,7*%
X114680000Y-106580000D03*
%TO.P,TR1,8*%
%TO.N,18Vb*%
X114680000Y-114200000D03*
D14*
%TO.P,TR1,a*%
%TO.N,N/C*%
X112990900Y-101500000D03*
D15*
X112990900Y-101500000D03*
D14*
%TO.P,TR1,b*%
X80809100Y-101500000D03*
D15*
X80809100Y-101500000D03*
%TD*%
D10*
%TO.P,R6,1*%
%TO.N,Net-(D10-Pad1)*%
X226100000Y-88100000D03*
D11*
%TO.P,R6,2*%
%TO.N,Net-(C8-Pad2)*%
X226100000Y-77940000D03*
%TD*%
D10*
%TO.P,R5,1*%
%TO.N,Net-(C7-Pad1)*%
X226100000Y-125700000D03*
D11*
%TO.P,R5,2*%
%TO.N,Net-(D9-Pad2)*%
X226100000Y-115540000D03*
%TD*%
D16*
%TO.P,D3,A*%
%TO.N,18Vb*%
X120700000Y-104700000D03*
%TO.P,D3,K*%
%TO.N,Net-(C1-Pad1)*%
X129900000Y-104700000D03*
%TD*%
D17*
%TO.P,C7,1*%
%TO.N,Net-(C7-Pad1)*%
X218000000Y-113400000D03*
D10*
%TO.P,C7,2*%
%TO.N,GNDREF*%
X218000000Y-108400000D03*
%TD*%
D18*
%TO.P,U1,1,ADJ*%
%TO.N,Net-(TRIM1-Pad2)*%
X176100000Y-116500000D03*
D19*
%TO.P,U1,2,VO*%
%TO.N,Net-(C7-Pad1)*%
X173560000Y-116500000D03*
%TO.P,U1,3,VI*%
%TO.N,Net-(C1-Pad1)*%
X171020000Y-116500000D03*
%TD*%
D20*
%TO.P,TRIM2,1,Left*%
%TO.N,Net-(TRIM2-Pad1)*%
X201400000Y-89900000D03*
%TO.P,TRIM2,2,Center*%
X198860000Y-87360000D03*
%TO.P,TRIM2,3,Right*%
%TO.N,Net-(R2-Pad2)*%
X201400000Y-84820000D03*
%TD*%
D17*
%TO.P,C6,1*%
%TO.N,GNDREF*%
X218000000Y-94600000D03*
D10*
%TO.P,C6,2*%
%TO.N,Net-(C6-Pad2)*%
X218000000Y-89600000D03*
%TD*%
D16*
%TO.P,D2,A*%
%TO.N,Net-(C3-Pad2)*%
X129900000Y-89800000D03*
%TO.P,D2,K*%
%TO.N,18Va*%
X120700000Y-89800000D03*
%TD*%
D10*
%TO.P,R3,1*%
%TO.N,Net-(C7-Pad1)*%
X207800000Y-131800000D03*
D11*
%TO.P,R3,2*%
%TO.N,Net-(C5-Pad1)*%
X207800000Y-121640000D03*
%TD*%
D20*
%TO.P,TRIM1,1,Left*%
%TO.N,Net-(R1-Pad1)*%
X201200000Y-117600000D03*
%TO.P,TRIM1,2,Center*%
%TO.N,Net-(TRIM1-Pad2)*%
X198660000Y-115060000D03*
%TO.P,TRIM1,3,Right*%
X201200000Y-112520000D03*
%TD*%
D21*
%TO.P,J1,1*%
%TO.N,Net-(J1-Pad1)*%
X69200000Y-96500000D03*
D22*
%TO.P,J1,2*%
%TO.N,Net-(J1-Pad2)*%
X69200000Y-101500000D03*
%TO.P,J1,3*%
%TO.N,GNDPWR*%
X69200000Y-106500000D03*
%TD*%
D16*
%TO.P,D1,A*%
%TO.N,18Va*%
X120700000Y-112100000D03*
%TO.P,D1,K*%
%TO.N,Net-(C1-Pad1)*%
X129900000Y-112100000D03*
%TD*%
D17*
%TO.P,C8,1*%
%TO.N,GNDREF*%
X218000000Y-75900000D03*
D10*
%TO.P,C8,2*%
%TO.N,Net-(C8-Pad2)*%
X218000000Y-70900000D03*
%TD*%
D16*
%TO.P,D4,A*%
%TO.N,Net-(C3-Pad2)*%
X129900000Y-97200000D03*
%TO.P,D4,K*%
%TO.N,18Vb*%
X120700000Y-97200000D03*
%TD*%
%TO.P,D6,A*%
%TO.N,Net-(C3-Pad2)*%
X169000000Y-75500000D03*
%TO.P,D6,K*%
%TO.N,Net-(C8-Pad2)*%
X178200000Y-75500000D03*
%TD*%
D23*
%TO.P,D10,1,K*%
%TO.N,Net-(D10-Pad1)*%
X229700000Y-96800000D03*
D24*
%TO.P,D10,2,A*%
%TO.N,GNDREF*%
X232240000Y-96800000D03*
%TD*%
D10*
%TO.P,R2,1*%
%TO.N,GNDREF*%
X202500000Y-98800000D03*
D11*
%TO.P,R2,2*%
%TO.N,Net-(R2-Pad2)*%
X192340000Y-98800000D03*
%TD*%
D10*
%TO.P,R4,1*%
%TO.N,Net-(C6-Pad2)*%
X207800000Y-80700000D03*
D11*
%TO.P,R4,2*%
%TO.N,Net-(C8-Pad2)*%
X207800000Y-70540000D03*
%TD*%
D23*
%TO.P,D9,1,K*%
%TO.N,GNDREF*%
X232200000Y-106800000D03*
D24*
%TO.P,D9,2,A*%
%TO.N,Net-(D9-Pad2)*%
X229660000Y-106800000D03*
%TD*%
D25*
%TO.P,C2,1*%
%TO.N,Net-(C1-Pad1)*%
X137000000Y-123300000D03*
D26*
%TO.P,C2,2*%
%TO.N,GNDREF*%
X137000000Y-118300000D03*
%TD*%
D17*
%TO.P,C5,1*%
%TO.N,Net-(C5-Pad1)*%
X218000000Y-132100000D03*
D10*
%TO.P,C5,2*%
%TO.N,GNDREF*%
X218000000Y-127100000D03*
%TD*%
D27*
%TO.P,C1,1*%
%TO.N,Net-(C1-Pad1)*%
X148400000Y-122300000D03*
%TO.P,C1,2*%
%TO.N,GNDREF*%
X148400000Y-119800000D03*
%TD*%
D28*
%TO.P,HS1,1*%
%TO.N,unconnected-(HS1-Pad1)*%
X186320000Y-121050000D03*
X160920000Y-121050000D03*
%TD*%
D16*
%TO.P,D5,A*%
%TO.N,Net-(C7-Pad1)*%
X178200000Y-126100000D03*
%TO.P,D5,K*%
%TO.N,Net-(C1-Pad1)*%
X169000000Y-126100000D03*
%TD*%
%TO.P,D8,A*%
%TO.N,Net-(C8-Pad2)*%
X207800000Y-88100000D03*
%TO.P,D8,K*%
%TO.N,Net-(C6-Pad2)*%
X207800000Y-97300000D03*
%TD*%
D29*
%TO.P,J2,1,+12V*%
%TO.N,Net-(C7-Pad1)*%
X242370000Y-106480000D03*
%TO.P,J2,2,+12V*%
X239830000Y-106480000D03*
%TO.P,J2,3,GND*%
%TO.N,GNDREF*%
X242370000Y-103940000D03*
%TO.P,J2,4,GND*%
X239830000Y-103940000D03*
%TO.P,J2,5,GND*%
X242370000Y-101400000D03*
%TO.P,J2,6,GND*%
X239830000Y-101400000D03*
%TO.P,J2,7,GND*%
X242370000Y-98860000D03*
%TO.P,J2,8,GND*%
X239830000Y-98860000D03*
%TO.P,J2,9,-12V*%
%TO.N,Net-(C8-Pad2)*%
X242370000Y-96320000D03*
%TO.P,J2,10,-12V*%
X239830000Y-96320000D03*
%TD*%
D25*
%TO.P,C3,1*%
%TO.N,GNDREF*%
X137000000Y-84000000D03*
D26*
%TO.P,C3,2*%
%TO.N,Net-(C3-Pad2)*%
X137000000Y-79000000D03*
%TD*%
D16*
%TO.P,D7,A*%
%TO.N,Net-(C5-Pad1)*%
X207800000Y-114200000D03*
%TO.P,D7,K*%
%TO.N,Net-(C7-Pad1)*%
X207800000Y-105000000D03*
%TD*%
D28*
%TO.P,HS2,1*%
%TO.N,unconnected-(HS2-Pad1)*%
X186320000Y-81650000D03*
X160920000Y-81650000D03*
%TD*%
D18*
%TO.P,U2,1,ADJ*%
%TO.N,Net-(TRIM2-Pad1)*%
X171000000Y-86300000D03*
D19*
%TO.P,U2,2,VI*%
%TO.N,Net-(C3-Pad2)*%
X173540000Y-86300000D03*
%TO.P,U2,3,VO*%
%TO.N,Net-(C8-Pad2)*%
X176080000Y-86300000D03*
%TD*%
D27*
%TO.P,C4,1*%
%TO.N,GNDREF*%
X148400000Y-82900000D03*
%TO.P,C4,2*%
%TO.N,Net-(C3-Pad2)*%
X148400000Y-80400000D03*
%TD*%
D30*
%TO.N,unconnected-(HS1-Pad1)*%
X160929000Y-121112000D02*
X186329000Y-121112000D01*
%TO.N,unconnected-(HS2-Pad1)*%
X160920000Y-81650000D02*
X186320000Y-81650000D01*
D31*
%TO.N,Net-(J1-Pad2)*%
X79120000Y-111422000D02*
X79120000Y-114200000D01*
X69215000Y-101517000D02*
X79120000Y-111422000D01*
%TD*%
M02*
